<mxfile host="app.diagrams.net" modified="2023-04-24T09:39:01.694Z" agent="Mozilla/5.0 (Windows NT 10.0; Win64; x64) AppleWebKit/537.36 (KHTML, like Gecko) Chrome/112.0.0.0 Safari/537.36" version="21.2.1" etag="hDxhSy2vxa6QD1qfjkHm" type="github">
  <diagram name="第 1 页" id="WpdyqR3icWnzeeTe-DrA">
    <mxGraphModel>
      <root>
        <mxCell id="0" />
        <mxCell id="1" parent="0" />
      </root>
    </mxGraphModel>
  </diagram>
</mxfile>
